<svg xmlns="http://www.w3.org/2000/svg" viewBox="0 0 900 900">
<defs>
  <radialGradient id="tireGrad" cx="45%" cy="35%">
    <stop offset="0" stop-color="#303039"/>
    <stop offset=".38" stop-color="#111116"/>
    <stop offset=".72" stop-color="#050506"/>
    <stop offset="1" stop-color="#000"/>
  </radialGradient>
  <radialGradient id="rimGrad" cx="45%" cy="35%">
    <stop offset="0" stop-color="#d7d7dc"/>
    <stop offset=".25" stop-color="#6f6f78"/>
    <stop offset=".65" stop-color="#222229"/>
    <stop offset="1" stop-color="#0a0a0d"/>
  </radialGradient>
  <filter id="drop" x="-30%" y="-30%" width="160%" height="160%">
    <feDropShadow dx="-28" dy="38" stdDeviation="24" flood-color="#000" flood-opacity=".75"/>
  </filter>
</defs>
<g filter="url(#drop)">
  <circle cx="450" cy="450" r="388" fill="#020203"/>
  <circle cx="450" cy="450" r="370" fill="url(#tireGrad)"/>
  <g transform="translate(450 450)" opacity=".72">
    <g fill="#33333b">
      <rect x="-18" y="-415" width="36" height="110" rx="8" transform="rotate(0)"/>
      <rect x="-18" y="-415" width="36" height="110" rx="8" transform="rotate(20)"/>
      <rect x="-18" y="-415" width="36" height="110" rx="8" transform="rotate(40)"/>
      <rect x="-18" y="-415" width="36" height="110" rx="8" transform="rotate(60)"/>
      <rect x="-18" y="-415" width="36" height="110" rx="8" transform="rotate(80)"/>
      <rect x="-18" y="-415" width="36" height="110" rx="8" transform="rotate(100)"/>
      <rect x="-18" y="-415" width="36" height="110" rx="8" transform="rotate(120)"/>
      <rect x="-18" y="-415" width="36" height="110" rx="8" transform="rotate(140)"/>
      <rect x="-18" y="-415" width="36" height="110" rx="8" transform="rotate(160)"/>
      <rect x="-18" y="-415" width="36" height="110" rx="8" transform="rotate(180)"/>
      <rect x="-18" y="-415" width="36" height="110" rx="8" transform="rotate(200)"/>
      <rect x="-18" y="-415" width="36" height="110" rx="8" transform="rotate(220)"/>
      <rect x="-18" y="-415" width="36" height="110" rx="8" transform="rotate(240)"/>
      <rect x="-18" y="-415" width="36" height="110" rx="8" transform="rotate(260)"/>
      <rect x="-18" y="-415" width="36" height="110" rx="8" transform="rotate(280)"/>
      <rect x="-18" y="-415" width="36" height="110" rx="8" transform="rotate(300)"/>
      <rect x="-18" y="-415" width="36" height="110" rx="8" transform="rotate(320)"/>
      <rect x="-18" y="-415" width="36" height="110" rx="8" transform="rotate(340)"/>
    </g>
  </g>
  <circle cx="450" cy="450" r="270" fill="#050506" stroke="#25252c" stroke-width="34"/>
  <circle cx="450" cy="450" r="214" fill="url(#rimGrad)" stroke="#111116" stroke-width="10"/>
  <g transform="translate(450 450)" fill="#0c0c10" stroke="#dedee5" stroke-opacity=".28" stroke-width="4">
    <path d="M0,-190 L35,-55 L0,-22 L-35,-55 Z"/>
    <path d="M0,-190 L35,-55 L0,-22 L-35,-55 Z" transform="rotate(45)"/>
    <path d="M0,-190 L35,-55 L0,-22 L-35,-55 Z" transform="rotate(90)"/>
    <path d="M0,-190 L35,-55 L0,-22 L-35,-55 Z" transform="rotate(135)"/>
    <path d="M0,-190 L35,-55 L0,-22 L-35,-55 Z" transform="rotate(180)"/>
    <path d="M0,-190 L35,-55 L0,-22 L-35,-55 Z" transform="rotate(225)"/>
    <path d="M0,-190 L35,-55 L0,-22 L-35,-55 Z" transform="rotate(270)"/>
    <path d="M0,-190 L35,-55 L0,-22 L-35,-55 Z" transform="rotate(315)"/>
  </g>
  <circle cx="450" cy="450" r="58" fill="#15151b" stroke="#eee" stroke-opacity=".22" stroke-width="5"/>
  <circle cx="450" cy="450" r="22" fill="#2b2b33"/>
  <circle cx="450" cy="450" r="390" fill="none" stroke="#ffffff" stroke-opacity=".08" stroke-width="2"/>
</g>
</svg>